<mxfile host="www.draw.io" modified="2019-12-29T18:58:47.578Z" agent="Mozilla/5.0 (Macintosh; Intel Mac OS X 10_15_2) AppleWebKit/537.36 (KHTML, like Gecko) Chrome/79.0.3945.88 Safari/537.36" etag="-Uy6_erChBMe38p1Z5zg" version="12.4.7" type="github">
  <diagram id="U5muAcYlw0ag1JCLRIDb" name="Page-1">
    <mxGraphModel dx="1716" dy="1101" grid="1" gridSize="10" guides="1" tooltips="1" connect="1" arrows="1" fold="1" page="1" pageScale="1" pageWidth="850" pageHeight="1100" math="0" shadow="0">
      <root>
        <mxCell id="0"/>
        <mxCell id="1" parent="0"/>
        <mxCell id="V0Xs-0CVrBQiGBR1F-wS-24" value="" style="rounded=1;whiteSpace=wrap;html=1;dashed=1;fillColor=none;fontSize=14;fontColor=#4D9900;opacity=40;strokeColor=#56517E;strokeWidth=2;arcSize=6;glass=0;comic=1;shadow=0;movable=0;resizable=0;rotatable=0;recursiveResize=0;editable=0;resizeHeight=0;resizeWidth=0;" parent="1" vertex="1">
          <mxGeometry x="103" y="236" width="1190" height="598" as="geometry"/>
        </mxCell>
        <mxCell id="fFbL5YQMe2po9hjQBBQq-3" value="" style="rounded=1;whiteSpace=wrap;html=1;fontSize=17;arcSize=10;fillColor=#EDFAEF;strokeColor=none;" parent="1" vertex="1">
          <mxGeometry x="460" y="701" width="680" height="100" as="geometry"/>
        </mxCell>
        <mxCell id="XNiuDohxMIJDn-E_BAAG-5" value="" style="rounded=1;whiteSpace=wrap;html=1;fontSize=17;arcSize=10;fillColor=#E3EEFF;strokeColor=none;opacity=80;" parent="1" vertex="1">
          <mxGeometry x="1073" y="261" width="180" height="389" as="geometry"/>
        </mxCell>
        <mxCell id="V0Xs-0CVrBQiGBR1F-wS-12" style="edgeStyle=orthogonalEdgeStyle;rounded=0;orthogonalLoop=1;jettySize=auto;html=1;endArrow=classic;endFill=1;strokeColor=#4D9900;strokeWidth=3;fontSize=14;fontColor=#56517E;startArrow=classic;startFill=1;" parent="1" source="XNiuDohxMIJDn-E_BAAG-1" target="XNiuDohxMIJDn-E_BAAG-5" edge="1">
          <mxGeometry relative="1" as="geometry"/>
        </mxCell>
        <mxCell id="XNiuDohxMIJDn-E_BAAG-1" value="" style="rounded=1;whiteSpace=wrap;html=1;fontSize=17;arcSize=10;fillColor=#EDFAEF;strokeColor=none;" parent="1" vertex="1">
          <mxGeometry x="653" y="261" width="320" height="329" as="geometry"/>
        </mxCell>
        <mxCell id="4SFKCHGJIZ1W-jkTVPGr-1" value="&lt;div style=&quot;font-size: 20px&quot;&gt;o&amp;nbsp; _&lt;/div&gt;&lt;div style=&quot;font-size: 20px&quot;&gt;| | | \/ \/&lt;/div&gt;&lt;div style=&quot;font-size: 20px&quot;&gt;&amp;nbsp; &amp;nbsp; &amp;nbsp; &amp;nbsp; &amp;nbsp;/&lt;/div&gt;" style="text;html=1;strokeColor=none;fillColor=none;align=left;verticalAlign=middle;whiteSpace=wrap;rounded=0;fontSize=20;fontFamily=Courier New;fontColor=#4D4D4D;fontStyle=1;textOpacity=70;" parent="1" vertex="1">
          <mxGeometry x="10" y="10" width="160" height="70" as="geometry"/>
        </mxCell>
        <mxCell id="4SFKCHGJIZ1W-jkTVPGr-7" style="edgeStyle=orthogonalEdgeStyle;rounded=0;orthogonalLoop=1;jettySize=auto;html=1;entryX=0;entryY=0.5;entryDx=0;entryDy=0;fontFamily=Tahoma;fontSize=14;fillColor=#d0cee2;strokeColor=#56517e;strokeWidth=3;fontColor=#56517E;" parent="1" source="4SFKCHGJIZ1W-jkTVPGr-4" target="4SFKCHGJIZ1W-jkTVPGr-3" edge="1">
          <mxGeometry relative="1" as="geometry"/>
        </mxCell>
        <mxCell id="4SFKCHGJIZ1W-jkTVPGr-4" value="User" style="shape=umlActor;verticalLabelPosition=bottom;labelBackgroundColor=#ffffff;verticalAlign=top;html=1;outlineConnect=0;fontFamily=Tahoma;fontSize=14;strokeWidth=3;strokeColor=#56517E;fontColor=#56517E;" parent="1" vertex="1">
          <mxGeometry x="30" y="505" width="30" height="60" as="geometry"/>
        </mxCell>
        <mxCell id="7_RaW1AWdkRF37Sx4alJ-11" value="OLTP" style="text;html=1;strokeColor=none;fillColor=none;align=center;verticalAlign=middle;whiteSpace=wrap;rounded=0;fontFamily=Tahoma;fontSize=17;fontColor=#56517E;" parent="1" vertex="1">
          <mxGeometry x="1138" y="266.5" width="40" height="20" as="geometry"/>
        </mxCell>
        <mxCell id="7_RaW1AWdkRF37Sx4alJ-12" value="" style="group" parent="1" vertex="1" connectable="0">
          <mxGeometry x="1123" y="410" width="70" height="71" as="geometry"/>
        </mxCell>
        <mxCell id="7_RaW1AWdkRF37Sx4alJ-13" value="" style="shape=cylinder;whiteSpace=wrap;html=1;boundedLbl=1;backgroundOutline=1;fontFamily=Tahoma;fontSize=14;fillColor=#bac8d3;strokeColor=#FFFFFF;" parent="7_RaW1AWdkRF37Sx4alJ-12" vertex="1">
          <mxGeometry x="7.368421052631579" width="36.84210526315789" height="50.714285714285715" as="geometry"/>
        </mxCell>
        <mxCell id="7_RaW1AWdkRF37Sx4alJ-14" value="" style="shape=image;html=1;verticalAlign=top;verticalLabelPosition=bottom;labelBackgroundColor=#ffffff;imageAspect=0;aspect=fixed;image=https://cdn4.iconfinder.com/data/icons/logos-brands-5/24/postgresql-128.png;strokeColor=#56517E;strokeWidth=3;fontFamily=Tahoma;fontSize=14;fontColor=#56517E;" parent="7_RaW1AWdkRF37Sx4alJ-12" vertex="1">
          <mxGeometry x="25.789473684210527" y="25.357142857142858" width="28.25216888374783" height="28.25216888374783" as="geometry"/>
        </mxCell>
        <mxCell id="XNiuDohxMIJDn-E_BAAG-3" value="&lt;span style=&quot;font-family: &amp;#34;tahoma&amp;#34; ; font-size: 14px&quot;&gt;invy-core-db&lt;/span&gt;" style="text;html=1;strokeColor=none;fillColor=none;align=center;verticalAlign=middle;whiteSpace=wrap;rounded=0;fontSize=14;fontColor=#949FA8;" parent="7_RaW1AWdkRF37Sx4alJ-12" vertex="1">
          <mxGeometry x="-11.052631578947368" y="56.51020408163266" width="81.05263157894736" height="14.489795918367347" as="geometry"/>
        </mxCell>
        <mxCell id="7_RaW1AWdkRF37Sx4alJ-16" value="OLAP" style="text;html=1;strokeColor=none;fillColor=none;align=center;verticalAlign=middle;whiteSpace=wrap;rounded=0;fontFamily=Tahoma;fontSize=14;fontColor=#56517E;" parent="1" vertex="1">
          <mxGeometry x="1134" y="506" width="40" height="20" as="geometry"/>
        </mxCell>
        <mxCell id="7_RaW1AWdkRF37Sx4alJ-34" value="" style="group" parent="1" vertex="1" connectable="0">
          <mxGeometry x="713" y="378.5" width="215" height="80" as="geometry"/>
        </mxCell>
        <mxCell id="4SFKCHGJIZ1W-jkTVPGr-8" value="invy-invest-service" style="rounded=1;whiteSpace=wrap;html=1;fontFamily=Tahoma;fontSize=14;fillColor=#d5e8d4;strokeColor=none;fontColor=#006600;" parent="7_RaW1AWdkRF37Sx4alJ-34" vertex="1">
          <mxGeometry y="30" width="195" height="50" as="geometry"/>
        </mxCell>
        <mxCell id="7_RaW1AWdkRF37Sx4alJ-27" value="" style="group" parent="7_RaW1AWdkRF37Sx4alJ-34" vertex="1" connectable="0">
          <mxGeometry x="160" width="55" height="55" as="geometry"/>
        </mxCell>
        <mxCell id="7_RaW1AWdkRF37Sx4alJ-28" value="" style="shape=hexagon;perimeter=hexagonPerimeter2;whiteSpace=wrap;html=1;strokeColor=#FFFFFF;strokeWidth=3;fontFamily=Tahoma;fontSize=14;fontColor=#56517E;" parent="7_RaW1AWdkRF37Sx4alJ-27" vertex="1">
          <mxGeometry x="7.5" y="8" width="40" height="38" as="geometry"/>
        </mxCell>
        <mxCell id="7_RaW1AWdkRF37Sx4alJ-29" value="" style="shape=image;imageAspect=0;aspect=fixed;verticalLabelPosition=bottom;verticalAlign=top;strokeColor=#FFFFFF;strokeWidth=3;fontFamily=Tahoma;fontSize=14;fontColor=#56517E;image=https://miro.medium.com/max/1200/1*J9d-VtiLfN9APIQgWTP9ow.png;" parent="7_RaW1AWdkRF37Sx4alJ-27" vertex="1">
          <mxGeometry width="55" height="55" as="geometry"/>
        </mxCell>
        <mxCell id="7_RaW1AWdkRF37Sx4alJ-35" value="" style="group" parent="1" vertex="1" connectable="0">
          <mxGeometry x="713" y="274.5" width="215" height="80" as="geometry"/>
        </mxCell>
        <mxCell id="4SFKCHGJIZ1W-jkTVPGr-9" value="invy-auth-service" style="rounded=1;whiteSpace=wrap;html=1;fontFamily=Tahoma;fontSize=14;fillColor=#d5e8d4;strokeColor=none;fontColor=#006600;" parent="7_RaW1AWdkRF37Sx4alJ-35" vertex="1">
          <mxGeometry y="30" width="195" height="50" as="geometry"/>
        </mxCell>
        <mxCell id="7_RaW1AWdkRF37Sx4alJ-26" value="" style="group" parent="7_RaW1AWdkRF37Sx4alJ-35" vertex="1" connectable="0">
          <mxGeometry x="160" width="55" height="55" as="geometry"/>
        </mxCell>
        <mxCell id="7_RaW1AWdkRF37Sx4alJ-25" value="" style="shape=hexagon;perimeter=hexagonPerimeter2;whiteSpace=wrap;html=1;strokeColor=#FFFFFF;strokeWidth=3;fontFamily=Tahoma;fontSize=14;fontColor=#56517E;" parent="7_RaW1AWdkRF37Sx4alJ-26" vertex="1">
          <mxGeometry x="7.5" y="8" width="40" height="38" as="geometry"/>
        </mxCell>
        <mxCell id="7_RaW1AWdkRF37Sx4alJ-23" value="" style="shape=image;imageAspect=0;aspect=fixed;verticalLabelPosition=bottom;verticalAlign=top;strokeColor=#FFFFFF;strokeWidth=3;fontFamily=Tahoma;fontSize=14;fontColor=#56517E;image=https://miro.medium.com/max/1200/1*J9d-VtiLfN9APIQgWTP9ow.png;" parent="7_RaW1AWdkRF37Sx4alJ-26" vertex="1">
          <mxGeometry width="55" height="55" as="geometry"/>
        </mxCell>
        <mxCell id="V0Xs-0CVrBQiGBR1F-wS-6" style="edgeStyle=orthogonalEdgeStyle;rounded=0;orthogonalLoop=1;jettySize=auto;html=1;fontSize=14;fontColor=#CCE5FF;strokeWidth=3;strokeColor=#56517E;" parent="1" source="4SFKCHGJIZ1W-jkTVPGr-9" target="V0Xs-0CVrBQiGBR1F-wS-5" edge="1">
          <mxGeometry relative="1" as="geometry"/>
        </mxCell>
        <mxCell id="V0Xs-0CVrBQiGBR1F-wS-7" value="" style="group" parent="1" vertex="1" connectable="0">
          <mxGeometry x="650" y="29" width="321" height="153" as="geometry"/>
        </mxCell>
        <mxCell id="V0Xs-0CVrBQiGBR1F-wS-5" value="" style="rounded=1;whiteSpace=wrap;html=1;fontSize=17;arcSize=17;fillColor=#F0F0F0;strokeColor=none;" parent="V0Xs-0CVrBQiGBR1F-wS-7" vertex="1">
          <mxGeometry y="80" width="321" height="71" as="geometry"/>
        </mxCell>
        <mxCell id="V0Xs-0CVrBQiGBR1F-wS-1" value="" style="shape=image;imageAspect=0;aspect=fixed;verticalLabelPosition=bottom;verticalAlign=top;fontSize=14;image=http://www.fortux.com/img/oauth2_logo.svg;" parent="V0Xs-0CVrBQiGBR1F-wS-7" vertex="1">
          <mxGeometry x="266" y="42.5" width="55" height="55" as="geometry"/>
        </mxCell>
        <mxCell id="V0Xs-0CVrBQiGBR1F-wS-3" value="" style="shape=image;imageAspect=0;aspect=fixed;verticalLabelPosition=bottom;verticalAlign=top;fontSize=14;image=https://chinaccelerator.com/wp-content/uploads/2017/01/google-logo-2015-g-icon.png;" parent="V0Xs-0CVrBQiGBR1F-wS-7" vertex="1">
          <mxGeometry x="60" y="73" width="118" height="89" as="geometry"/>
        </mxCell>
        <mxCell id="V0Xs-0CVrBQiGBR1F-wS-4" value="" style="shape=image;imageAspect=0;aspect=fixed;verticalLabelPosition=bottom;verticalAlign=top;fontSize=14;image=https://www.freepnglogos.com/uploads/official-linkedin-logo----17.png;opacity=50;" parent="V0Xs-0CVrBQiGBR1F-wS-7" vertex="1">
          <mxGeometry x="197" y="91" width="47" height="47" as="geometry"/>
        </mxCell>
        <mxCell id="V0Xs-0CVrBQiGBR1F-wS-9" value="" style="edgeStyle=orthogonalEdgeStyle;fontSize=12;html=1;endArrow=classic;endFill=1;rounded=0;strokeWidth=3;endSize=4;startSize=4;dashed=0;strokeColor=#56517E;" parent="1" edge="1">
          <mxGeometry width="100" relative="1" as="geometry">
            <mxPoint x="19.5" y="105.5" as="sourcePoint"/>
            <mxPoint x="119.5" y="105.5" as="targetPoint"/>
            <Array as="points">
              <mxPoint x="99.5" y="105.5"/>
              <mxPoint x="99.5" y="105.5"/>
            </Array>
          </mxGeometry>
        </mxCell>
        <mxCell id="V0Xs-0CVrBQiGBR1F-wS-10" value="https" style="text;html=1;resizable=0;points=[];align=center;verticalAlign=middle;labelBackgroundColor=#ffffff;fontSize=14;fontColor=#56517E;" parent="V0Xs-0CVrBQiGBR1F-wS-9" vertex="1" connectable="0">
          <mxGeometry x="0.6" y="9" relative="1" as="geometry">
            <mxPoint x="-29.5" y="21.5" as="offset"/>
          </mxGeometry>
        </mxCell>
        <mxCell id="V0Xs-0CVrBQiGBR1F-wS-13" value="" style="edgeStyle=orthogonalEdgeStyle;fontSize=12;html=1;endArrow=classic;endFill=1;rounded=0;strokeWidth=3;endSize=4;startSize=4;dashed=0;strokeColor=#4D9900;" parent="1" edge="1">
          <mxGeometry width="100" relative="1" as="geometry">
            <mxPoint x="20.21428571428578" y="137.5" as="sourcePoint"/>
            <mxPoint x="120.21428571428578" y="137.5" as="targetPoint"/>
            <Array as="points">
              <mxPoint x="100" y="138"/>
              <mxPoint x="100" y="138"/>
            </Array>
          </mxGeometry>
        </mxCell>
        <mxCell id="V0Xs-0CVrBQiGBR1F-wS-14" value="jdbc" style="text;html=1;resizable=0;points=[];align=center;verticalAlign=middle;labelBackgroundColor=#ffffff;fontSize=14;fontColor=#4D9900;" parent="V0Xs-0CVrBQiGBR1F-wS-13" vertex="1" connectable="0">
          <mxGeometry x="0.6" y="9" relative="1" as="geometry">
            <mxPoint x="-32.5" y="22.5" as="offset"/>
          </mxGeometry>
        </mxCell>
        <mxCell id="V0Xs-0CVrBQiGBR1F-wS-21" value="" style="group" parent="1" vertex="1" connectable="0">
          <mxGeometry x="501" y="709.5" width="210" height="102" as="geometry"/>
        </mxCell>
        <mxCell id="7_RaW1AWdkRF37Sx4alJ-31" value="invy-cvm-batch" style="rounded=1;whiteSpace=wrap;html=1;fontFamily=Tahoma;fontSize=14;fillColor=#d5e8d4;strokeColor=none;fontColor=#006600;" parent="V0Xs-0CVrBQiGBR1F-wS-21" vertex="1">
          <mxGeometry y="27" width="195" height="50" as="geometry"/>
        </mxCell>
        <mxCell id="7_RaW1AWdkRF37Sx4alJ-33" value="" style="group" parent="V0Xs-0CVrBQiGBR1F-wS-21" vertex="1" connectable="0">
          <mxGeometry x="166" width="43" height="43" as="geometry"/>
        </mxCell>
        <mxCell id="7_RaW1AWdkRF37Sx4alJ-32" value="" style="shape=hexagon;perimeter=hexagonPerimeter2;whiteSpace=wrap;html=1;strokeColor=#FFFFFF;strokeWidth=3;fontFamily=Tahoma;fontSize=14;fontColor=#56517E;rotation=90;" parent="7_RaW1AWdkRF37Sx4alJ-33" vertex="1">
          <mxGeometry x="4" y="5" width="35" height="34" as="geometry"/>
        </mxCell>
        <mxCell id="7_RaW1AWdkRF37Sx4alJ-30" value="" style="shape=image;imageAspect=0;aspect=fixed;verticalLabelPosition=bottom;verticalAlign=top;strokeColor=#FFFFFF;strokeWidth=3;fontFamily=Tahoma;fontSize=14;fontColor=#56517E;image=https://img.stackshare.io/service/9201/dbefbe0f6d93161f545994d3aff87775.png;" parent="7_RaW1AWdkRF37Sx4alJ-33" vertex="1">
          <mxGeometry width="43" height="43" as="geometry"/>
        </mxCell>
        <mxCell id="V0Xs-0CVrBQiGBR1F-wS-22" value="" style="group" parent="1" vertex="1" connectable="0">
          <mxGeometry x="494" y="870" width="240" height="111" as="geometry"/>
        </mxCell>
        <mxCell id="V0Xs-0CVrBQiGBR1F-wS-18" value="" style="rounded=1;whiteSpace=wrap;html=1;fillColor=#EBE6CA;fontSize=14;strokeColor=none;fontColor=#ffffff;opacity=80;" parent="V0Xs-0CVrBQiGBR1F-wS-22" vertex="1">
          <mxGeometry x="-21" width="250" height="90" as="geometry"/>
        </mxCell>
        <mxCell id="V0Xs-0CVrBQiGBR1F-wS-17" value="" style="shape=image;imageAspect=0;aspect=fixed;verticalLabelPosition=bottom;verticalAlign=top;fillColor=#F0F0F0;fontSize=14;fontColor=#4D9900;image=http://www.cvm.gov.br/export/sites/cvm/galeria/imagem/logo_cvm.png;" parent="V0Xs-0CVrBQiGBR1F-wS-22" vertex="1">
          <mxGeometry x="31.96" y="14.25" width="116.08" height="61.5" as="geometry"/>
        </mxCell>
        <mxCell id="V0Xs-0CVrBQiGBR1F-wS-23" style="edgeStyle=orthogonalEdgeStyle;rounded=0;orthogonalLoop=1;jettySize=auto;html=1;endArrow=classic;endFill=1;strokeColor=#56517E;strokeWidth=3;fontSize=14;fontColor=#4D9900;" parent="1" source="7_RaW1AWdkRF37Sx4alJ-31" target="V0Xs-0CVrBQiGBR1F-wS-18" edge="1">
          <mxGeometry relative="1" as="geometry"/>
        </mxCell>
        <mxCell id="fFbL5YQMe2po9hjQBBQq-5" style="edgeStyle=orthogonalEdgeStyle;rounded=0;orthogonalLoop=1;jettySize=auto;html=1;fontSize=15;fontColor=#CC6600;strokeWidth=3;strokeColor=#CC6600;startArrow=none;startFill=0;entryX=0.5;entryY=1;entryDx=0;entryDy=0;" parent="1" source="7_RaW1AWdkRF37Sx4alJ-31" target="fFbL5YQMe2po9hjQBBQq-4" edge="1">
          <mxGeometry relative="1" as="geometry"/>
        </mxCell>
        <mxCell id="fFbL5YQMe2po9hjQBBQq-7" value="" style="edgeStyle=orthogonalEdgeStyle;fontSize=12;html=1;endArrow=classic;endFill=1;rounded=0;strokeWidth=3;endSize=4;startSize=4;dashed=0;strokeColor=#CC6600;" parent="1" edge="1">
          <mxGeometry width="100" relative="1" as="geometry">
            <mxPoint x="19.928571428571445" y="169.78571428571433" as="sourcePoint"/>
            <mxPoint x="119.92857142857144" y="169.78571428571433" as="targetPoint"/>
            <Array as="points">
              <mxPoint x="99.5" y="170.5"/>
              <mxPoint x="99.5" y="170.5"/>
            </Array>
          </mxGeometry>
        </mxCell>
        <mxCell id="fFbL5YQMe2po9hjQBBQq-8" value="amqp" style="text;html=1;resizable=0;points=[];align=center;verticalAlign=middle;labelBackgroundColor=#ffffff;fontSize=14;fontColor=#CC6600;" parent="fFbL5YQMe2po9hjQBBQq-7" vertex="1" connectable="0">
          <mxGeometry x="0.6" y="9" relative="1" as="geometry">
            <mxPoint x="-32.5" y="22.5" as="offset"/>
          </mxGeometry>
        </mxCell>
        <mxCell id="fFbL5YQMe2po9hjQBBQq-10" value="" style="group" parent="1" vertex="1" connectable="0">
          <mxGeometry x="723" y="611" width="186" height="66" as="geometry"/>
        </mxCell>
        <mxCell id="fFbL5YQMe2po9hjQBBQq-4" value="invy-rabbit-mq" style="rounded=1;whiteSpace=wrap;html=1;fontSize=15;arcSize=10;fillColor=#ffe6cc;strokeColor=none;opacity=80;fontColor=#CC6600;" parent="fFbL5YQMe2po9hjQBBQq-10" vertex="1">
          <mxGeometry y="15" width="180" height="51" as="geometry"/>
        </mxCell>
        <mxCell id="fFbL5YQMe2po9hjQBBQq-2" value="" style="shape=image;imageAspect=0;aspect=fixed;verticalLabelPosition=bottom;verticalAlign=top;rounded=1;shadow=0;glass=0;comic=1;image=https://cdn.worldvectorlogo.com/logos/rabbitmq.svg;" parent="fFbL5YQMe2po9hjQBBQq-10" vertex="1">
          <mxGeometry x="155" width="28" height="30" as="geometry"/>
        </mxCell>
        <mxCell id="fFbL5YQMe2po9hjQBBQq-11" style="edgeStyle=orthogonalEdgeStyle;rounded=0;jumpSize=5;orthogonalLoop=1;jettySize=auto;html=1;startArrow=none;startFill=0;endSize=5;strokeColor=#CC6600;strokeWidth=3;fontSize=13;fontColor=#CC6600;" parent="1" source="fFbL5YQMe2po9hjQBBQq-4" target="XNiuDohxMIJDn-E_BAAG-1" edge="1">
          <mxGeometry relative="1" as="geometry"/>
        </mxCell>
        <mxCell id="_6xYMksCDbQlXMiqtta--1" value="" style="group" parent="1" vertex="1" connectable="0">
          <mxGeometry x="713" y="470" width="215" height="80" as="geometry"/>
        </mxCell>
        <mxCell id="_6xYMksCDbQlXMiqtta--2" value="invy-analytics-service" style="rounded=1;whiteSpace=wrap;html=1;fontFamily=Tahoma;fontSize=14;fillColor=#d5e8d4;strokeColor=none;fontColor=#006600;" parent="_6xYMksCDbQlXMiqtta--1" vertex="1">
          <mxGeometry y="30" width="195" height="50" as="geometry"/>
        </mxCell>
        <mxCell id="_6xYMksCDbQlXMiqtta--3" value="" style="group" parent="_6xYMksCDbQlXMiqtta--1" vertex="1" connectable="0">
          <mxGeometry x="160" width="55" height="55" as="geometry"/>
        </mxCell>
        <mxCell id="_6xYMksCDbQlXMiqtta--4" value="" style="shape=hexagon;perimeter=hexagonPerimeter2;whiteSpace=wrap;html=1;strokeColor=#FFFFFF;strokeWidth=3;fontFamily=Tahoma;fontSize=14;fontColor=#56517E;" parent="_6xYMksCDbQlXMiqtta--3" vertex="1">
          <mxGeometry x="7.5" y="8" width="40" height="38" as="geometry"/>
        </mxCell>
        <mxCell id="_6xYMksCDbQlXMiqtta--5" value="" style="shape=image;imageAspect=0;aspect=fixed;verticalLabelPosition=bottom;verticalAlign=top;strokeColor=#FFFFFF;strokeWidth=3;fontFamily=Tahoma;fontSize=14;fontColor=#56517E;image=https://miro.medium.com/max/1200/1*J9d-VtiLfN9APIQgWTP9ow.png;" parent="_6xYMksCDbQlXMiqtta--3" vertex="1">
          <mxGeometry width="55" height="55" as="geometry"/>
        </mxCell>
        <mxCell id="_6xYMksCDbQlXMiqtta--6" value="" style="group" parent="1" vertex="1" connectable="0">
          <mxGeometry x="1108" y="301" width="95" height="79" as="geometry"/>
        </mxCell>
        <mxCell id="4SFKCHGJIZ1W-jkTVPGr-15" value="" style="shape=cylinder;whiteSpace=wrap;html=1;boundedLbl=1;backgroundOutline=1;fontFamily=Tahoma;fontSize=14;fillColor=#bac8d3;strokeColor=#FFFFFF;" parent="_6xYMksCDbQlXMiqtta--6" vertex="1">
          <mxGeometry x="21.59090909090909" width="34.54545454545455" height="52.37078651685393" as="geometry"/>
        </mxCell>
        <mxCell id="7_RaW1AWdkRF37Sx4alJ-6" value="" style="shape=image;html=1;verticalAlign=top;verticalLabelPosition=bottom;labelBackgroundColor=#ffffff;imageAspect=0;aspect=fixed;image=https://cdn4.iconfinder.com/data/icons/logos-brands-5/24/postgresql-128.png;strokeColor=#56517E;strokeWidth=3;fontFamily=Tahoma;fontSize=14;fontColor=#56517E;" parent="_6xYMksCDbQlXMiqtta--6" vertex="1">
          <mxGeometry x="47.68181818181818" y="25.06741573033708" width="29.363636363636363" height="29.363636363636363" as="geometry"/>
        </mxCell>
        <mxCell id="XNiuDohxMIJDn-E_BAAG-2" value="&lt;span style=&quot;font-family: &amp;quot;tahoma&amp;quot; ; font-size: 14px&quot;&gt;invy-auth-db&lt;/span&gt;" style="text;html=1;strokeColor=none;fillColor=none;align=center;verticalAlign=middle;whiteSpace=wrap;rounded=0;fontSize=14;fontColor=#949FA8;" parent="_6xYMksCDbQlXMiqtta--6" vertex="1">
          <mxGeometry y="61.24719101123595" width="95" height="17.752808988764045" as="geometry"/>
        </mxCell>
        <mxCell id="XJ3DvhJzgClIl9dYRfv9-5" value="" style="group" parent="1" vertex="1" connectable="0">
          <mxGeometry x="1103" y="541" width="120" height="74" as="geometry"/>
        </mxCell>
        <mxCell id="XJ3DvhJzgClIl9dYRfv9-4" value="" style="group" parent="XJ3DvhJzgClIl9dYRfv9-5" vertex="1" connectable="0">
          <mxGeometry width="120" height="74" as="geometry"/>
        </mxCell>
        <mxCell id="XJ3DvhJzgClIl9dYRfv9-1" value="" style="shape=cylinder;whiteSpace=wrap;html=1;boundedLbl=1;backgroundOutline=1;fontFamily=Tahoma;fontSize=14;fillColor=#bac8d3;strokeColor=#FFFFFF;" parent="XJ3DvhJzgClIl9dYRfv9-4" vertex="1">
          <mxGeometry x="30.86842105263156" width="36.84210526315789" height="50.714285714285715" as="geometry"/>
        </mxCell>
        <mxCell id="XJ3DvhJzgClIl9dYRfv9-3" value="&lt;span style=&quot;font-family: &amp;#34;tahoma&amp;#34; ; font-size: 14px&quot;&gt;invy-analytics-db&lt;/span&gt;" style="text;html=1;strokeColor=none;fillColor=none;align=center;verticalAlign=middle;whiteSpace=wrap;rounded=0;fontSize=14;fontColor=#949FA8;" parent="XJ3DvhJzgClIl9dYRfv9-4" vertex="1">
          <mxGeometry y="60" width="120" height="14" as="geometry"/>
        </mxCell>
        <mxCell id="XJ3DvhJzgClIl9dYRfv9-2" value="" style="shape=image;imageAspect=0;aspect=fixed;verticalLabelPosition=bottom;verticalAlign=top;image=https://www.timescale.com/images/icon.png;" parent="XJ3DvhJzgClIl9dYRfv9-5" vertex="1">
          <mxGeometry x="60" y="20" width="34" height="34" as="geometry"/>
        </mxCell>
        <mxCell id="JUTRlk6t8taZxdUZubmE-16" style="edgeStyle=orthogonalEdgeStyle;rounded=0;orthogonalLoop=1;jettySize=auto;html=1;endArrow=classic;endFill=1;strokeColor=#56517E;strokeWidth=3;fontSize=14;fontColor=#56517E;startArrow=classic;startFill=1;entryX=0;entryY=0.5;entryDx=0;entryDy=0;" parent="1" source="JUTRlk6t8taZxdUZubmE-21" target="XNiuDohxMIJDn-E_BAAG-1" edge="1">
          <mxGeometry relative="1" as="geometry">
            <mxPoint x="400" y="390" as="sourcePoint"/>
            <mxPoint x="400" y="343" as="targetPoint"/>
          </mxGeometry>
        </mxCell>
        <mxCell id="JUTRlk6t8taZxdUZubmE-19" value="" style="group" parent="1" vertex="1" connectable="0">
          <mxGeometry x="150" y="670" width="145" height="75.5" as="geometry"/>
        </mxCell>
        <mxCell id="_6xYMksCDbQlXMiqtta--7" value="metabase???" style="rounded=1;whiteSpace=wrap;html=1;fontFamily=Tahoma;fontSize=14;fillColor=#b1ddf0;strokeColor=none;fontColor=#56517E;" parent="JUTRlk6t8taZxdUZubmE-19" vertex="1">
          <mxGeometry y="29.5" width="120" height="46" as="geometry"/>
        </mxCell>
        <mxCell id="JUTRlk6t8taZxdUZubmE-18" value="" style="group" parent="JUTRlk6t8taZxdUZubmE-19" vertex="1" connectable="0">
          <mxGeometry x="90" width="55" height="55" as="geometry"/>
        </mxCell>
        <mxCell id="_6xYMksCDbQlXMiqtta--9" value="" style="ellipse;whiteSpace=wrap;html=1;aspect=fixed;strokeColor=#66B2FF;fillColor=#FFFFFF;spacing=2;gradientColor=none;strokeWidth=2;" parent="JUTRlk6t8taZxdUZubmE-18" vertex="1">
          <mxGeometry x="6.5" y="6.5" width="42" height="42" as="geometry"/>
        </mxCell>
        <mxCell id="_6xYMksCDbQlXMiqtta--8" value="" style="shape=image;imageAspect=0;aspect=fixed;verticalLabelPosition=bottom;verticalAlign=top;image=https://s3.amazonaws.com/cdn.33voices.com/presentations/567956383662300010000005/images/hero-07bb88075fb1a32bb828e64324b4ee20-medium.png;" parent="JUTRlk6t8taZxdUZubmE-18" vertex="1">
          <mxGeometry width="55" height="55" as="geometry"/>
        </mxCell>
        <mxCell id="JUTRlk6t8taZxdUZubmE-22" value="" style="group" parent="1" vertex="1" connectable="0">
          <mxGeometry x="150" y="480" width="132" height="78" as="geometry"/>
        </mxCell>
        <mxCell id="4SFKCHGJIZ1W-jkTVPGr-3" value="invy-ui" style="rounded=1;whiteSpace=wrap;html=1;fontFamily=Tahoma;fontSize=14;fillColor=#b1ddf0;strokeColor=none;fontColor=#56517E;" parent="JUTRlk6t8taZxdUZubmE-22" vertex="1">
          <mxGeometry y="32" width="120" height="46" as="geometry"/>
        </mxCell>
        <mxCell id="7_RaW1AWdkRF37Sx4alJ-3" value="" style="shape=image;html=1;verticalAlign=top;verticalLabelPosition=bottom;labelBackgroundColor=#ffffff;imageAspect=0;aspect=fixed;image=https://cdn2.iconfinder.com/data/icons/designer-skills/128/react-128.png;fontFamily=Tahoma;fontSize=14;fontColor=#56517E;" parent="JUTRlk6t8taZxdUZubmE-22" vertex="1">
          <mxGeometry x="80" width="52" height="52" as="geometry"/>
        </mxCell>
        <mxCell id="JUTRlk6t8taZxdUZubmE-24" style="edgeStyle=orthogonalEdgeStyle;rounded=0;orthogonalLoop=1;jettySize=auto;html=1;endArrow=classic;endFill=1;strokeColor=#56517E;strokeWidth=3;fontSize=14;fontColor=#56517E;startArrow=classic;startFill=1;exitX=0;exitY=0.5;exitDx=0;exitDy=0;" parent="1" source="JUTRlk6t8taZxdUZubmE-21" target="4SFKCHGJIZ1W-jkTVPGr-3" edge="1">
          <mxGeometry relative="1" as="geometry">
            <mxPoint x="569.19" y="500" as="sourcePoint"/>
            <mxPoint x="643" y="436" as="targetPoint"/>
          </mxGeometry>
        </mxCell>
        <mxCell id="JUTRlk6t8taZxdUZubmE-25" value="" style="group" parent="1" vertex="1" connectable="0">
          <mxGeometry x="340" y="435" width="230.32999999999993" height="180" as="geometry"/>
        </mxCell>
        <mxCell id="JUTRlk6t8taZxdUZubmE-21" value="" style="rounded=1;whiteSpace=wrap;html=1;fontSize=15;arcSize=10;fillColor=#F8EBFF;strokeColor=none;opacity=80;fontColor=#330066;" parent="JUTRlk6t8taZxdUZubmE-25" vertex="1">
          <mxGeometry y="20" width="219.19" height="160" as="geometry"/>
        </mxCell>
        <mxCell id="JUTRlk6t8taZxdUZubmE-6" value="" style="group" parent="JUTRlk6t8taZxdUZubmE-25" vertex="1" connectable="0">
          <mxGeometry x="20" y="88.5" width="210.32999999999998" height="71.5" as="geometry"/>
        </mxCell>
        <mxCell id="JUTRlk6t8taZxdUZubmE-4" value="gateway-service &lt;br&gt;(zuul)" style="rounded=1;whiteSpace=wrap;html=1;fontSize=15;arcSize=10;fillColor=#e1d5e7;strokeColor=none;opacity=80;fontColor=#330066;" parent="JUTRlk6t8taZxdUZubmE-6" vertex="1">
          <mxGeometry y="20.5" width="180" height="51" as="geometry"/>
        </mxCell>
        <mxCell id="JUTRlk6t8taZxdUZubmE-8" value="" style="group" parent="JUTRlk6t8taZxdUZubmE-25" vertex="1" connectable="0">
          <mxGeometry x="20" y="29.75" width="210.32999999999998" height="71.5" as="geometry"/>
        </mxCell>
        <mxCell id="JUTRlk6t8taZxdUZubmE-9" value="service-registry &lt;br&gt;(eureka)" style="rounded=1;whiteSpace=wrap;html=1;fontSize=15;arcSize=10;fillColor=#e1d5e7;strokeColor=none;opacity=80;fontColor=#330066;" parent="JUTRlk6t8taZxdUZubmE-8" vertex="1">
          <mxGeometry y="20.5" width="180" height="51" as="geometry"/>
        </mxCell>
        <mxCell id="JUTRlk6t8taZxdUZubmE-17" value="" style="shape=image;imageAspect=0;aspect=fixed;verticalLabelPosition=bottom;verticalAlign=top;fontColor=#330066;image=https://netflix.github.io/images/Netflix-OSS-Logo.png;" parent="JUTRlk6t8taZxdUZubmE-25" vertex="1">
          <mxGeometry x="111.13999999999999" width="119.19" height="40" as="geometry"/>
        </mxCell>
        <mxCell id="JUTRlk6t8taZxdUZubmE-27" value="&lt;h1 style=&quot;font-size: 11px;&quot;&gt;&lt;span style=&quot;font-size: 11px; font-weight: normal;&quot;&gt;Proxy, Service Discovery and Load Balance&lt;/span&gt;&lt;br style=&quot;font-size: 11px;&quot;&gt;&lt;/h1&gt;" style="text;html=1;strokeColor=none;fillColor=none;spacing=0;spacingTop=0;whiteSpace=wrap;overflow=hidden;rounded=0;fontColor=#330066;fontSize=11;" parent="1" vertex="1">
          <mxGeometry x="343" y="607" width="220" height="26" as="geometry"/>
        </mxCell>
        <mxCell id="dvqVxzHfl_kuCJ2bE0qf-1" value="" style="group" vertex="1" connectable="0" parent="1">
          <mxGeometry x="910" y="710" width="213" height="102" as="geometry"/>
        </mxCell>
        <mxCell id="dvqVxzHfl_kuCJ2bE0qf-2" value="invy-fiis-batch" style="rounded=1;whiteSpace=wrap;html=1;fontFamily=Tahoma;fontSize=14;fillColor=#d5e8d4;strokeColor=none;fontColor=#006600;" vertex="1" parent="dvqVxzHfl_kuCJ2bE0qf-1">
          <mxGeometry y="27" width="195" height="50" as="geometry"/>
        </mxCell>
        <mxCell id="dvqVxzHfl_kuCJ2bE0qf-12" value="" style="group" vertex="1" connectable="0" parent="dvqVxzHfl_kuCJ2bE0qf-1">
          <mxGeometry x="158" width="55" height="55" as="geometry"/>
        </mxCell>
        <mxCell id="dvqVxzHfl_kuCJ2bE0qf-13" value="" style="shape=hexagon;perimeter=hexagonPerimeter2;whiteSpace=wrap;html=1;strokeColor=#FFFFFF;strokeWidth=3;fontFamily=Tahoma;fontSize=14;fontColor=#56517E;" vertex="1" parent="dvqVxzHfl_kuCJ2bE0qf-12">
          <mxGeometry x="7.5" y="8" width="40" height="38" as="geometry"/>
        </mxCell>
        <mxCell id="dvqVxzHfl_kuCJ2bE0qf-14" value="" style="shape=image;imageAspect=0;aspect=fixed;verticalLabelPosition=bottom;verticalAlign=top;strokeColor=#FFFFFF;strokeWidth=3;fontFamily=Tahoma;fontSize=14;fontColor=#56517E;image=https://miro.medium.com/max/1200/1*J9d-VtiLfN9APIQgWTP9ow.png;" vertex="1" parent="dvqVxzHfl_kuCJ2bE0qf-12">
          <mxGeometry width="55" height="55" as="geometry"/>
        </mxCell>
        <mxCell id="dvqVxzHfl_kuCJ2bE0qf-6" style="edgeStyle=orthogonalEdgeStyle;rounded=0;orthogonalLoop=1;jettySize=auto;html=1;fontSize=15;fontColor=#CC6600;strokeWidth=3;strokeColor=#CC6600;startArrow=none;startFill=0;exitX=0;exitY=0.5;exitDx=0;exitDy=0;entryX=0.5;entryY=1;entryDx=0;entryDy=0;" edge="1" parent="1" source="dvqVxzHfl_kuCJ2bE0qf-2" target="fFbL5YQMe2po9hjQBBQq-4">
          <mxGeometry relative="1" as="geometry">
            <mxPoint x="677" y="772" as="sourcePoint"/>
            <mxPoint x="810" y="680" as="targetPoint"/>
          </mxGeometry>
        </mxCell>
        <mxCell id="dvqVxzHfl_kuCJ2bE0qf-9" value="" style="group" vertex="1" connectable="0" parent="1">
          <mxGeometry x="857" y="870" width="300" height="90" as="geometry"/>
        </mxCell>
        <mxCell id="dvqVxzHfl_kuCJ2bE0qf-8" value="" style="rounded=1;whiteSpace=wrap;html=1;fillColor=#EBE6CA;fontSize=14;strokeColor=none;fontColor=#ffffff;opacity=80;" vertex="1" parent="dvqVxzHfl_kuCJ2bE0qf-9">
          <mxGeometry width="300" height="90" as="geometry"/>
        </mxCell>
        <mxCell id="dvqVxzHfl_kuCJ2bE0qf-7" value="" style="shape=image;imageAspect=0;aspect=fixed;verticalLabelPosition=bottom;verticalAlign=top;image=https://fiis.com.br/images/logo-white.png;" vertex="1" parent="dvqVxzHfl_kuCJ2bE0qf-9">
          <mxGeometry x="62" y="19.2" width="191.08" height="51.59" as="geometry"/>
        </mxCell>
        <mxCell id="dvqVxzHfl_kuCJ2bE0qf-10" style="edgeStyle=orthogonalEdgeStyle;rounded=0;orthogonalLoop=1;jettySize=auto;html=1;endArrow=classic;endFill=1;strokeColor=#56517E;strokeWidth=3;fontSize=14;fontColor=#4D9900;exitX=0.5;exitY=1;exitDx=0;exitDy=0;" edge="1" parent="1" source="dvqVxzHfl_kuCJ2bE0qf-2" target="dvqVxzHfl_kuCJ2bE0qf-8">
          <mxGeometry relative="1" as="geometry">
            <mxPoint x="579.2352941176471" y="796.5" as="sourcePoint"/>
            <mxPoint x="579.2352941176471" y="899.9999999999998" as="targetPoint"/>
          </mxGeometry>
        </mxCell>
      </root>
    </mxGraphModel>
  </diagram>
</mxfile>
